<svg width="58" height="58" viewBox="0 0 58 58" fill="none" xmlns="http://www.w3.org/2000/svg">
<g filter="url(#filter0_d_4_137)">
<path d="M34.8965 49.2445C34.2403 49.4208 33.55 49.4278 32.8903 49.2648C32.5513 49.1805 32.2251 49.051 31.9205 48.8798C31.5989 48.6983 31.3036 48.4738 31.0427 48.2124L9.85462 27.0446C9.59264 26.7839 9.36751 26.4886 9.18549 26.167C9.01396 25.8627 8.88408 25.5368 8.79934 25.1979C8.63719 24.5379 8.64434 23.8476 8.82015 23.191C8.99595 22.5345 9.33471 21.933 9.805 21.4423C10.047 21.1913 10.3216 20.9738 10.6214 20.7958C10.9401 20.6078 11.2831 20.4643 11.6407 20.3693L19.6228 18.229L19.9595 19.4846L32.9419 16.0036L32.6052 14.7479L40.5872 12.6077C40.9438 12.5114 41.3119 12.4642 41.6812 12.4675C42.0305 12.4714 42.3777 12.5221 42.7135 12.6183C43.3661 12.8081 43.9601 13.1595 44.4406 13.6401C44.9212 14.1206 45.2725 14.7147 45.4622 15.3672C45.5587 15.7029 45.6096 16.05 45.6137 16.3992C45.617 16.7688 45.5698 17.1371 45.4734 17.4939L37.7163 46.424C37.6212 46.7808 37.4778 47.123 37.2901 47.4411C37.1121 47.7416 36.8944 48.017 36.643 48.2596C36.1535 48.7302 35.5526 49.0691 34.8965 49.2445V49.2445Z" stroke="#E1E1E1" stroke-width="4" stroke-linecap="round" stroke-linejoin="round"/>
</g>
<g filter="url(#filter1_d_4_137)">
<path d="M32.8621 14.684L40.5891 12.6121C41.2656 12.4307 41.9779 12.4305 42.6545 12.6117C43.331 12.7929 43.9479 13.1491 44.4432 13.6443C44.9384 14.1396 45.2945 14.7565 45.4757 15.433C45.6569 16.1096 45.6567 16.8219 45.4753 17.4984L43.4475 25.0523L32.8621 14.684Z" stroke="#FF0045" stroke-width="4" stroke-linecap="round" stroke-linejoin="round"/>
</g>
<g filter="url(#filter2_d_4_137)">
<path d="M24.5961 43.7211L17.6917 45.5711C17.3328 45.6681 16.9623 45.7155 16.5906 45.7119C16.2398 45.7079 15.8912 45.6569 15.554 45.5601C14.8991 45.3693 14.3029 45.0163 13.8208 44.5338C13.3386 44.0513 12.986 43.4549 12.7956 42.7999C12.6989 42.4626 12.6479 42.1137 12.644 41.7628C12.6409 41.3917 12.6884 41.022 12.7854 40.6638L20.5804 11.6103C20.6759 11.2519 20.82 10.9081 21.0086 10.5887C21.1873 10.2876 21.4055 10.0119 21.6575 9.76879C22.1498 9.29723 22.7531 8.95751 23.4116 8.78106C24.0701 8.60462 24.7625 8.59717 25.4246 8.7594C25.7649 8.84434 26.0923 8.97459 26.398 9.14666C26.7214 9.32816 27.0185 9.55298 27.281 9.81488L48.5575 31.0787C48.8212 31.3401 49.0479 31.6364 49.2314 31.9593C49.4035 32.2651 49.5338 32.5927 49.6186 32.9332C49.7814 33.5959 49.7742 34.289 49.5978 34.9481C49.4213 35.6073 49.0813 36.2112 48.6092 36.704C48.3656 36.9564 48.0892 37.175 47.7874 37.3538C47.4672 37.5427 47.1227 37.687 46.7634 37.7824L39.859 39.6325L33.5929 33.3709C33.0956 32.8741 32.4764 32.5168 31.7974 32.335C31.1184 32.1532 30.4035 32.1533 29.7245 32.3352C29.0455 32.5171 28.4264 32.8745 27.9292 33.3715C27.4321 33.8684 27.0744 34.4874 26.8922 35.1663L24.5961 43.7211Z" stroke="#E1E1E1" stroke-width="4" stroke-linecap="round" stroke-linejoin="round"/>
</g>
<g filter="url(#filter3_d_4_137)">
<path d="M24.5961 43.7211L17.6917 45.5711C17.3328 45.6681 16.9623 45.7155 16.5906 45.7119C16.2398 45.7079 15.8912 45.6569 15.554 45.5601C14.8991 45.3693 14.3029 45.0163 13.8208 44.5338C13.3386 44.0513 12.986 43.4549 12.7956 42.7999C12.6989 42.4626 12.6479 42.1137 12.644 41.7628C12.6409 41.3917 12.6884 41.022 12.7854 40.6638L20.5804 11.6103C20.6759 11.2519 20.82 10.9081 21.0086 10.5887C21.1873 10.2876 21.4055 10.0119 21.6575 9.76879C22.1498 9.29723 22.7531 8.95751 23.4116 8.78106C24.0701 8.60462 24.7625 8.59717 25.4246 8.7594C25.7649 8.84434 26.0923 8.97459 26.398 9.14666C26.7214 9.32816 27.0185 9.55298 27.281 9.81488L48.5575 31.0787C48.8212 31.3401 49.0479 31.6364 49.2314 31.9593C49.4035 32.2651 49.5338 32.5927 49.6186 32.9332C49.7814 33.5959 49.7742 34.289 49.5978 34.9481C49.4213 35.6073 49.0813 36.2112 48.6092 36.704C48.3656 36.9564 48.0892 37.175 47.7874 37.3538C47.4672 37.5427 47.1227 37.687 46.7634 37.7824L39.859 39.6325L33.5929 33.3709C33.0956 32.8741 32.4764 32.5168 31.7974 32.335C31.1184 32.1532 30.4035 32.1533 29.7245 32.3352C29.0455 32.5171 28.4264 32.8745 27.9292 33.3715C27.4321 33.8684 27.0744 34.4874 26.8922 35.1663L24.5961 43.7211Z" stroke="#E1E1E1" stroke-width="4" stroke-linecap="round" stroke-linejoin="round"/>
</g>
<defs>
<filter id="filter0_d_4_137" x="0.682739" y="4.46735" width="52.9312" height="52.9147" filterUnits="userSpaceOnUse" color-interpolation-filters="sRGB">
<feFlood flood-opacity="0" result="BackgroundImageFix"/>
<feColorMatrix in="SourceAlpha" type="matrix" values="0 0 0 0 0 0 0 0 0 0 0 0 0 0 0 0 0 0 127 0" result="hardAlpha"/>
<feOffset/>
<feGaussianBlur stdDeviation="3"/>
<feColorMatrix type="matrix" values="0 0 0 0 0.0431373 0 0 0 0 0.0470588 0 0 0 0 0.0980392 0 0 0 0.651 0"/>
<feBlend mode="normal" in2="BackgroundImageFix" result="effect1_dropShadow_4_137"/>
<feBlend mode="normal" in="SourceGraphic" in2="effect1_dropShadow_4_137" result="shape"/>
</filter>
<filter id="filter1_d_4_137" x="24.8621" y="4.47595" width="28.7494" height="28.5764" filterUnits="userSpaceOnUse" color-interpolation-filters="sRGB">
<feFlood flood-opacity="0" result="BackgroundImageFix"/>
<feColorMatrix in="SourceAlpha" type="matrix" values="0 0 0 0 0 0 0 0 0 0 0 0 0 0 0 0 0 0 127 0" result="hardAlpha"/>
<feOffset/>
<feGaussianBlur stdDeviation="3"/>
<feColorMatrix type="matrix" values="0 0 0 0 0.0431373 0 0 0 0 0.0470588 0 0 0 0 0.0980392 0 0 0 0.651 0"/>
<feBlend mode="normal" in2="BackgroundImageFix" result="effect1_dropShadow_4_137"/>
<feBlend mode="normal" in="SourceGraphic" in2="effect1_dropShadow_4_137" result="shape"/>
</filter>
<filter id="filter2_d_4_137" x="4.64392" y="0.643005" width="53.0917" height="53.0691" filterUnits="userSpaceOnUse" color-interpolation-filters="sRGB">
<feFlood flood-opacity="0" result="BackgroundImageFix"/>
<feColorMatrix in="SourceAlpha" type="matrix" values="0 0 0 0 0 0 0 0 0 0 0 0 0 0 0 0 0 0 127 0" result="hardAlpha"/>
<feOffset/>
<feGaussianBlur stdDeviation="3"/>
<feColorMatrix type="matrix" values="0 0 0 0 0.0431373 0 0 0 0 0.0470588 0 0 0 0 0.0980392 0 0 0 0.651 0"/>
<feBlend mode="normal" in2="BackgroundImageFix" result="effect1_dropShadow_4_137"/>
<feBlend mode="normal" in="SourceGraphic" in2="effect1_dropShadow_4_137" result="shape"/>
</filter>
<filter id="filter3_d_4_137" x="4.64392" y="0.643005" width="53.0917" height="53.0691" filterUnits="userSpaceOnUse" color-interpolation-filters="sRGB">
<feFlood flood-opacity="0" result="BackgroundImageFix"/>
<feColorMatrix in="SourceAlpha" type="matrix" values="0 0 0 0 0 0 0 0 0 0 0 0 0 0 0 0 0 0 127 0" result="hardAlpha"/>
<feOffset/>
<feGaussianBlur stdDeviation="3"/>
<feColorMatrix type="matrix" values="0 0 0 0 0.0431373 0 0 0 0 0.0470588 0 0 0 0 0.0980392 0 0 0 0.651 0"/>
<feBlend mode="normal" in2="BackgroundImageFix" result="effect1_dropShadow_4_137"/>
<feBlend mode="normal" in="SourceGraphic" in2="effect1_dropShadow_4_137" result="shape"/>
</filter>
</defs>
</svg>
